<svg width="1286" height="970" viewBox="0 0 1286 970" fill="none" xmlns="http://www.w3.org/2000/svg">
<path d="M40.2637 499V225.5L30.2637 175.5L40.7637 145.5H136.264L234.264 335.5H244.264L325.264 145.5H424.764L429.764 175.5L424.764 223.5V499H334.264L335.764 456.5V317H330.264L310.264 365L265.264 449H205.264L136.264 317H131.264V357.5L136.264 499H40.2637Z" fill="#E485C3"/>
<path d="M886.8 914C846.8 914 815 903.4 791.4 882.2C767.8 860.6 756 829.8 756 789.8C756 769.4 759.4 752 766.2 737.6C773 722.8 781.6 710.8 792 701.6C802.4 692.4 813 685.2 823.8 680C835 674.8 844.8 671.2 853.2 669.2C849.2 664.4 844.4 658.2 838.8 650.6C833.2 642.6 828.2 633 823.8 621.8C819.8 610.2 817.8 596.6 817.8 581C817.8 569 820.6 556.6 826.2 543.8C831.8 531 840.2 519.2 851.4 508.4C862.6 497.2 876.2 488.8 892.2 483.2C902.6 479.6 914.2 477.4 927 476.6C939.8 475.4 952.2 475.2 964.2 476C976.6 476.4 987.6 477.4 997.2 479C1007.2 480.2 1014.4 481.4 1018.8 482.6L1066.2 530.6L1029.6 592.4L970.2 573.8C958.6 574.2 949.2 576.8 942 581.6C935.2 586 931.8 594 931.8 605.6C931.8 614.8 935 623.8 941.4 632.6C948.2 641 955.6 649.2 963.6 657.2L1051.8 745.4L1057.8 738.8L1039.8 660.8L1045.8 624.8L1164.6 636.8V729.2L1104.6 795.2L1149 836.6L1193.4 872V908H1078.2L1029.6 857.6C1024.4 862.4 1016 869.4 1004.4 878.6C993.2 887.4 978 895.6 958.8 903.2C939.6 910.4 915.6 914 886.8 914ZM910.8 818C924.8 818 937.4 815.6 948.6 810.8C959.8 805.6 966.8 801.6 969.6 798.8L906.6 738.8C895 742.8 886 749 879.6 757.4C873.2 765.4 870 774.6 870 785C870 795.8 873.6 804 880.8 809.6C888.4 815.2 898.4 818 910.8 818Z" fill="#E485C3"/>
<path d="M550.838 469.414C550.838 475.078 549.823 480.364 547.793 485.273C545.764 490.135 543.003 494.359 539.51 497.946C536.017 501.486 531.91 504.295 527.19 506.372C522.518 508.401 517.491 509.416 512.11 509.416C506.776 509.416 501.749 508.401 497.029 506.372C492.356 504.295 488.25 501.486 484.71 497.946C481.217 494.359 478.456 490.135 476.426 485.273C474.397 480.364 473.382 475.078 473.382 469.414C473.382 463.655 474.397 458.321 476.426 453.413C478.456 448.504 481.217 444.279 484.71 440.739C488.25 437.152 492.356 434.344 497.029 432.314C501.749 430.284 506.776 429.27 512.11 429.27C517.491 429.27 522.518 430.237 527.19 432.172C531.91 434.06 536.017 436.774 539.51 440.314C543.003 443.807 545.764 448.032 547.793 452.988C549.823 457.897 550.838 463.372 550.838 469.414ZM531.368 469.414C531.368 466.298 530.848 463.49 529.81 460.988C528.819 458.439 527.45 456.268 525.704 454.475C523.957 452.634 521.904 451.241 519.544 450.297C517.231 449.306 514.753 448.811 512.11 448.811C509.467 448.811 506.965 449.306 504.605 450.297C502.292 451.241 500.263 452.634 498.516 454.475C496.817 456.268 495.472 458.439 494.48 460.988C493.489 463.49 492.994 466.298 492.994 469.414C492.994 472.34 493.489 475.054 494.48 477.556C495.472 480.057 496.817 482.229 498.516 484.069C500.263 485.91 502.292 487.373 504.605 488.459C506.965 489.497 509.467 490.017 512.11 490.017C514.753 490.017 517.231 489.521 519.544 488.53C521.904 487.539 523.957 486.146 525.704 484.353C527.45 482.559 528.819 480.388 529.81 477.839C530.848 475.29 531.368 472.482 531.368 469.414ZM580.857 508H561.529V432.172H566.202L572.574 441.164C575.689 438.332 579.229 436.161 583.194 434.65C587.159 433.093 591.265 432.314 595.513 432.314H612.576V451.572H595.513C593.484 451.572 591.572 451.949 589.778 452.705C587.985 453.46 586.427 454.498 585.105 455.82C583.784 457.141 582.745 458.699 581.99 460.493C581.235 462.286 580.857 464.198 580.857 466.228V508ZM717.999 508H698.741V459.855C698.741 458.534 698.481 457.283 697.962 456.103C697.49 454.923 696.806 453.885 695.909 452.988C695.012 452.091 693.973 451.407 692.793 450.935C691.613 450.415 690.363 450.156 689.041 450.156C687.719 450.156 686.469 450.415 685.289 450.935C684.156 451.407 683.141 452.091 682.244 452.988C681.395 453.885 680.71 454.923 680.191 456.103C679.719 457.283 679.483 458.534 679.483 459.855V508H660.154V459.855C660.154 458.534 659.895 457.283 659.375 456.103C658.903 454.923 658.219 453.885 657.322 452.988C656.425 452.091 655.387 451.407 654.207 450.935C653.027 450.415 651.776 450.156 650.455 450.156C649.133 450.156 647.882 450.415 646.702 450.935C645.569 451.407 644.555 452.091 643.658 452.988C642.808 453.885 642.124 454.923 641.604 456.103C641.132 457.283 640.896 458.534 640.896 459.855V508H621.568V432.172H626.241L631.48 437.978C634.17 435.712 637.12 433.966 640.33 432.739C643.587 431.464 646.962 430.827 650.455 430.827C653.995 430.827 657.44 431.488 660.792 432.81C664.19 434.131 667.164 436.42 669.712 439.677C670.892 438.072 672.238 436.704 673.748 435.571C675.258 434.438 676.84 433.518 678.492 432.81C680.191 432.102 681.937 431.606 683.731 431.323C685.525 430.992 687.295 430.827 689.041 430.827C693.053 430.827 696.806 431.582 700.298 433.093C703.838 434.603 706.906 436.68 709.502 439.323C712.146 441.919 714.222 444.987 715.733 448.527C717.243 452.067 717.999 455.843 717.999 459.855V508ZM805.438 469.414C805.438 475.078 804.423 480.364 802.393 485.273C800.363 490.135 797.602 494.359 794.109 497.946C790.617 501.486 786.51 504.295 781.79 506.372C777.117 508.401 772.09 509.416 766.709 509.416C761.376 509.416 756.349 508.401 751.629 506.372C746.956 504.295 742.85 501.486 739.31 497.946C735.817 494.359 733.056 490.135 731.026 485.273C728.996 480.364 727.981 475.078 727.981 469.414C727.981 463.655 728.996 458.321 731.026 453.413C733.056 448.504 735.817 444.279 739.31 440.739C742.85 437.152 746.956 434.344 751.629 432.314C756.349 430.284 761.376 429.27 766.709 429.27C772.09 429.27 777.117 430.237 781.79 432.172C786.51 434.06 790.617 436.774 794.109 440.314C797.602 443.807 800.363 448.032 802.393 452.988C804.423 457.897 805.438 463.372 805.438 469.414ZM785.967 469.414C785.967 466.298 785.448 463.49 784.41 460.988C783.418 458.439 782.05 456.268 780.303 454.475C778.557 452.634 776.504 451.241 774.144 450.297C771.831 449.306 769.353 448.811 766.709 448.811C764.066 448.811 761.565 449.306 759.205 450.297C756.892 451.241 754.862 452.634 753.116 454.475C751.417 456.268 750.071 458.439 749.08 460.988C748.089 463.49 747.593 466.298 747.593 469.414C747.593 472.34 748.089 475.054 749.08 477.556C750.071 480.057 751.417 482.229 753.116 484.069C754.862 485.91 756.892 487.373 759.205 488.459C761.565 489.497 764.066 490.017 766.709 490.017C769.353 490.017 771.831 489.521 774.144 488.53C776.504 487.539 778.557 486.146 780.303 484.353C782.05 482.559 783.418 480.388 784.41 477.839C785.448 475.29 785.967 472.482 785.967 469.414ZM835.457 508H816.128V432.172H820.801L827.173 441.164C830.289 438.332 833.829 436.161 837.793 434.65C841.758 433.093 845.865 432.314 850.113 432.314H867.176V451.572H850.113C848.083 451.572 846.172 451.949 844.378 452.705C842.584 453.46 841.027 454.498 839.705 455.82C838.383 457.141 837.345 458.699 836.59 460.493C835.835 462.286 835.457 464.198 835.457 466.228V508Z" fill="#E485C3"/>
<path d="M312.971 883C303.304 883 294.137 882.5 285.471 881.5C277.137 880.5 269.471 879.333 262.471 878L197.471 848L227.471 772L319.971 804C340.637 804 355.471 797.833 364.471 785.5C373.471 772.833 377.971 753.833 377.971 728.5V604L366.971 554L372.471 524H466.971L467.471 744.5C467.471 789.167 454.137 823.5 427.471 847.5C400.804 871.167 362.637 883 312.971 883Z" fill="#E485C3"/>
<path d="M552.066 801H547.393L539.888 790.592C538.047 792.244 536.089 793.802 534.012 795.265C531.982 796.681 529.834 797.932 527.569 799.018C525.303 800.056 522.967 800.882 520.56 801.496C518.2 802.109 515.792 802.416 513.338 802.416C508.004 802.416 502.977 801.519 498.257 799.726C493.584 797.932 489.478 795.336 485.938 791.938C482.445 788.492 479.684 784.291 477.654 779.335C475.625 774.379 474.61 768.738 474.61 762.414C474.61 756.514 475.625 751.109 477.654 746.2C479.684 741.244 482.445 736.996 485.938 733.456C489.478 729.916 493.584 727.178 498.257 725.243C502.977 723.261 508.004 722.27 513.338 722.27C515.792 722.27 518.223 722.576 520.63 723.19C523.038 723.804 525.374 724.653 527.64 725.739C529.905 726.824 532.053 728.099 534.083 729.562C536.159 731.025 538.095 732.606 539.888 734.306L547.393 725.314H552.066V801ZM532.596 762.414C532.596 759.77 532.076 757.222 531.038 754.767C530.047 752.265 528.678 750.071 526.932 748.183C525.185 746.247 523.132 744.713 520.772 743.581C518.459 742.401 515.981 741.811 513.338 741.811C510.695 741.811 508.193 742.259 505.833 743.156C503.52 744.053 501.491 745.374 499.744 747.121C498.045 748.867 496.7 751.038 495.708 753.634C494.717 756.183 494.222 759.11 494.222 762.414C494.222 765.718 494.717 768.668 495.708 771.264C496.7 773.812 498.045 775.96 499.744 777.707C501.491 779.453 503.52 780.775 505.833 781.671C508.193 782.568 510.695 783.017 513.338 783.017C515.981 783.017 518.459 782.45 520.772 781.317C523.132 780.137 525.185 778.603 526.932 776.715C528.678 774.78 530.047 772.585 531.038 770.131C532.076 767.629 532.596 765.057 532.596 762.414ZM620.813 762.414C620.813 759.77 620.294 757.222 619.256 754.767C618.265 752.265 616.896 750.071 615.149 748.183C613.403 746.247 611.35 744.713 608.99 743.581C606.677 742.401 604.199 741.811 601.556 741.811C598.912 741.811 596.411 742.259 594.051 743.156C591.738 744.053 589.708 745.374 587.962 747.121C586.263 748.867 584.917 751.038 583.926 753.634C582.935 756.183 582.439 759.11 582.439 762.414C582.439 765.576 582.935 768.432 583.926 770.98C584.917 773.482 586.263 775.63 587.962 777.423C589.708 779.217 591.738 780.609 594.051 781.601C596.411 782.545 598.912 783.017 601.556 783.017C604.199 783.017 606.677 782.45 608.99 781.317C611.35 780.137 613.403 778.603 615.149 776.715C616.896 774.78 618.265 772.585 619.256 770.131C620.294 767.629 620.813 765.057 620.813 762.414ZM640.284 791.442C640.284 796.776 639.269 801.779 637.239 806.452C635.21 811.125 632.425 815.207 628.885 818.7C625.392 822.193 621.285 824.954 616.565 826.984C611.893 829.014 606.889 830.028 601.556 830.028L591.856 829.887V810.558L601.414 810.7C604.435 810.7 607.007 810.299 609.131 809.496C611.255 808.741 613.049 807.679 614.512 806.31C615.975 804.988 617.132 803.454 617.981 801.708C618.878 799.962 619.586 798.121 620.105 796.186C619.35 797.413 618.265 798.428 616.849 799.23C615.433 799.985 613.851 800.599 612.105 801.071C610.406 801.59 608.612 801.944 606.724 802.133C604.883 802.322 603.16 802.416 601.556 802.416C596.222 802.416 591.195 801.496 586.475 799.655C581.802 797.814 577.696 795.194 574.156 791.796C570.663 788.35 567.902 784.149 565.872 779.193C563.842 774.237 562.828 768.644 562.828 762.414C562.828 756.702 563.842 751.392 565.872 746.483C567.902 741.575 570.663 737.326 574.156 733.739C577.696 730.152 581.802 727.344 586.475 725.314C591.195 723.284 596.222 722.27 601.556 722.27C604.01 722.27 606.441 722.576 608.848 723.19C611.255 723.804 613.592 724.653 615.857 725.739C618.123 726.824 620.271 728.099 622.3 729.562C624.377 731.025 626.312 732.606 628.106 734.306L635.611 725.314H640.284V791.442Z" fill="#E485C3"/>
</svg>
